<?xml version="1.0" encoding="UTF-8" standalone="no"?>
<!DOCTYPE svg PUBLIC "-//W3C//DTD SVG 20010904//EN" "http://www.w3.org/TR/2001/REC-SVG-20010904/DTD/svg10.dtd">
<svg version="1.0" xmlns="http://www.w3.org/2000/svg" width="1816.000000pt" height="1816.000000pt" viewBox="0 0 1816.000000 1816.000000" preserveAspectRatio="xMidYMid meet">
<metadata>
Created by potrace 1.11, written by Peter Selinger 2001-2013
</metadata>
<g transform="translate(0.000000,1816.000000) scale(0.100000,-0.100000)" fill="#000000" stroke="none">
<path d="M9003 17658 c-113 -17 -264 -91 -473 -231 -58 -39 -109 -74 -115 -79 -5 -4 -59 -44 -120 -88 -215 -158 -594 -436 -615 -453 -8 -7 -40 -30 -70 -52 -134 -96 -245 -180 -248 -187 -2 -5 -8 -8 -13 -8 -6 0 -27 -13 -47 -29 -20 -16 -181 -136 -357 -268 -269 -201 -581 -438 -620 -471 -35 -29 -193 -116 -267 -146 -93 -38 -249 -81 -338 -92 -30 -4 -696 -8 -1480 -9 -784 -1 -1441 -5 -1460 -8 -19 -3 -56 -8 -81 -12 -79 -10 -102 -15 -174 -36 -146 -43 -261 -125 -329 -234 -31 -50 -73 -144 -80 -181 -2 -10 -9 -37 -15 -59 -6 -22 -13 -65 -16 -95 -4 -30 -9 -66 -11 -80 -14 -80 -22 -1113 -13 -1775 3 -256 -9 -327 -78 -455 -68 -127 -140 -198 -357 -354 -164 -118 -568 -422 -686 -516 -19 -15 -172 -137 -340 -271 -307 -244 -356 -287 -422 -369 -68 -85 -137 -231 -152 -322 -3 -18 -9 -46 -13 -63 -8 -35 -7 -9533 1 -9616 20 -208 63 -317 163 -416 35 -35 68 -63 75 -63 6 0 19 -6 27 -14 22 -19 147 -63 217 -75 33 -6 70 -13 83 -16 13 -2 58 -7 100 -11 100 -9 16506 -8 16636 0 249 17 364 44 506 117 159 83 273 261 304 474 3 22 8 47 11 55 15 44 17 608 17 4855 l1 4630 -22 92 c-37 156 -83 261 -166 373 -43 58 -152 171 -201 208 -16 12 -110 80 -207 151 -97 71 -291 217 -430 324 -334 256 -583 442 -745 556 -73 51 -152 112 -176 134 -144 140 -194 281 -189 537 4 255 3 1555 -2 1715 -6 190 -10 227 -42 383 -26 127 -122 265 -228 327 -88 52 -181 77 -376 101 -30 4 -719 8 -1530 9 -811 1 -1491 5 -1510 9 -192 38 -341 96 -488 188 -51 33 -392 292 -502 381 -16 13 -187 144 -380 292 -120 92 -791 594 -1135 850 -477 355 -622 425 -822 393z m5482 -3422 c86 -10 161 -49 184 -95 46 -89 45 -59 46 -2071 1 -1048 4 -2080 7 -2295 6 -354 5 -398 -12 -475 -36 -168 -94 -278 -206 -386 -84 -82 -173 -139 -362 -234 -87 -43 -551 -274 -1032 -514 -838 -418 -1397 -700 -2025 -1020 -692 -354 -1217 -624 -1535 -788 -125 -65 -256 -113 -341 -125 -88 -12 -228 -7 -314 12 -165 37 -153 31 -1320 620 -297 150 -1145 576 -1885 948 -740 371 -1420 713 -1512 760 -155 79 -288 142 -450 216 -217 98 -327 229 -366 436 -3 17 -5 912 -5 1990 2 2990 -1 2858 49 2937 30 47 72 67 174 83 85 13 10797 14 10905 1z m-11180 -8336 c41 -39 50 -73 36 -148 -7 -37 -15 -78 -17 -92 -2 -14 -9 -45 -14 -70 -12 -53 -50 -288 -65 -400 -3 -25 -8 -56 -10 -70 -4 -28 -13 -93 -21 -155 -2 -22 -7 -58 -10 -80 -9 -72 -13 -109 -20 -185 -4 -41 -8 -88 -10 -105 -1 -16 -6 -73 -10 -125 -4 -52 -8 -113 -10 -135 -2 -22 -6 -149 -9 -283 l-6 -243 33 5 c18 3 76 10 128 16 106 12 152 18 208 25 115 14 134 14 167 1 40 -17 75 -68 75 -109 0 -42 -29 -96 -60 -112 -34 -17 -53 -21 -235 -41 -33 -3 -67 -8 -75 -9 -8 -2 -42 -6 -75 -9 -33 -4 -69 -9 -80 -11 -11 -2 -33 -4 -48 -4 l-29 -1 6 -72 c4 -40 9 -92 11 -115 3 -24 7 -64 10 -90 3 -27 8 -61 10 -78 3 -16 7 -48 10 -70 29 -217 142 -592 207 -687 10 -14 18 -29 18 -33 0 -17 92 -146 143 -201 107 -116 266 -214 383 -238 11 -3 39 -9 64 -14 103 -23 380 -34 500 -20 36 4 88 10 115 14 28 3 95 17 150 30 282 70 544 209 729 387 86 82 107 93 163 84 71 -12 115 -86 94 -156 -19 -65 -202 -225 -385 -336 -201 -122 -456 -217 -676 -251 -19 -3 -40 -7 -47 -9 -71 -24 -527 -23 -644 0 -13 3 -40 8 -59 11 -56 9 -179 53 -252 89 -272 135 -480 387 -610 739 -80 218 -152 551 -174 806 -8 100 -16 175 -17 177 -1 0 -49 -5 -107 -13 -58 -7 -127 -16 -155 -19 -73 -8 -137 -16 -165 -20 -14 -2 -72 -9 -130 -16 -58 -6 -112 -13 -120 -15 -8 -1 -22 -3 -32 -3 -9 -1 -35 -25 -58 -53 -22 -29 -46 -60 -53 -68 -109 -139 -260 -291 -392 -392 -128 -100 -271 -166 -415 -193 -57 -11 -137 -7 -167 8 -57 30 -80 117 -44 170 28 43 54 57 118 63 120 12 195 41 322 127 96 64 159 121 261 233 55 59 55 59 -22 59 -66 0 -71 2 -98 32 -38 42 -48 95 -26 139 21 46 66 71 140 79 33 4 72 8 86 10 14 2 52 6 85 10 110 11 105 7 185 128 41 62 107 168 147 237 40 69 77 132 83 140 5 8 39 71 76 140 165 306 331 652 458 955 26 61 50 119 55 130 5 11 16 36 24 55 18 41 116 293 142 365 22 60 31 73 70 97 39 25 107 19 140 -12z"/>
<path d="M5800 12909 c-516 -49 -966 -411 -1092 -877 -28 -105 -31 -313 -4 -389 20 -60 71 -118 121 -139 48 -20 200 -29 250 -15 22 6 42 9 45 8 10 -4 70 45 91 74 12 17 33 74 46 127 30 117 28 112 37 137 50 141 99 228 169 302 74 79 182 141 274 158 15 2 39 7 53 10 14 3 59 6 100 6 296 0 477 -160 584 -516 52 -173 71 -210 131 -257 80 -63 233 -72 334 -21 48 24 60 37 86 88 30 58 30 59 30 224 0 202 -15 267 -95 436 -162 342 -542 604 -925 640 -105 10 -162 11 -235 4z"/>
<path d="M12177 12914 c-1 -1 -31 -4 -67 -7 -358 -31 -692 -232 -895 -537 -55 -82 -127 -225 -141 -278 -2 -9 -13 -51 -24 -92 -55 -203 -39 -329 52 -419 41 -41 91 -67 165 -86 79 -21 139 -19 190 6 91 44 136 132 159 313 15 112 189 342 327 430 145 93 269 101 478 32 221 -72 358 -227 384 -431 35 -269 196 -404 414 -348 139 35 182 125 176 367 -4 190 -59 359 -172 529 -62 93 -197 231 -295 300 -119 85 -309 170 -427 192 -14 3 -52 10 -83 15 -50 9 -234 20 -241 14z"/>
<path d="M8095 9860 c-37 -8 -83 -32 -110 -57 -21 -18 -73 -88 -66 -88 2 0 -2 -18 -9 -40 -15 -50 -23 -297 -11 -350 5 -22 12 -53 14 -70 9 -57 58 -190 99 -265 108 -202 285 -374 493 -478 78 -40 215 -90 265 -98 14 -2 48 -10 75 -16 57 -13 281 -17 368 -6 81 11 206 44 291 78 359 142 622 416 727 755 41 131 45 305 10 395 -25 65 -42 86 -101 129 -90 65 -231 83 -318 39 -64 -32 -105 -90 -141 -201 -39 -120 -93 -255 -128 -315 -121 -209 -294 -305 -536 -296 -307 12 -455 159 -557 554 -37 142 -58 192 -104 246 -59 70 -170 105 -261 84z"/>
<path d="M2837 4582 c-143 -291 -373 -716 -412 -762 -7 -8 -24 -36 -38 -61 -25 -46 -25 -46 -3 -43 32 4 173 22 236 29 30 4 66 8 80 11 14 2 52 6 85 9 77 7 93 10 99 16 2 2 7 119 10 259 4 140 9 282 11 315 2 33 7 99 10 147 3 48 7 102 9 120 8 58 17 158 14 158 -2 0 -47 -89 -101 -198z"/>
</g>
</svg>